<mxfile host="app.diagrams.net" modified="2023-06-14T06:57:27.575Z" agent="Mozilla/5.0 (Windows NT 10.0; Win64; x64) AppleWebKit/537.36 (KHTML, like Gecko) Chrome/114.0.0.0 Safari/537.36" etag="lidCCn22BfDm0oVPEuAn" version="21.3.3" type="github">
  <diagram name="Page-1" id="kVXZ8rAWjVU0jIa6RQYE">
    <mxGraphModel dx="1050" dy="573" grid="1" gridSize="10" guides="1" tooltips="1" connect="1" arrows="1" fold="1" page="1" pageScale="1" pageWidth="850" pageHeight="1100" math="0" shadow="0">
      <root>
        <mxCell id="0" />
        <mxCell id="1" parent="0" />
        <mxCell id="h8QKxIH4rxHfvOc697Op-2" value="" style="image;html=1;image=img/lib/clip_art/computers/Virtual_Application_128x128.png" vertex="1" parent="1">
          <mxGeometry x="270" y="95" width="280" height="95" as="geometry" />
        </mxCell>
        <mxCell id="h8QKxIH4rxHfvOc697Op-3" value="Application" style="text;html=1;align=center;verticalAlign=middle;resizable=0;points=[];autosize=1;strokeColor=none;fillColor=none;fontStyle=1;fontSize=14;" vertex="1" parent="1">
          <mxGeometry x="360" y="140" width="100" height="30" as="geometry" />
        </mxCell>
        <mxCell id="h8QKxIH4rxHfvOc697Op-4" value="" style="endArrow=classic;html=1;rounded=0;" edge="1" parent="1">
          <mxGeometry width="50" height="50" relative="1" as="geometry">
            <mxPoint x="320" y="220" as="sourcePoint" />
            <mxPoint x="370" y="170" as="targetPoint" />
          </mxGeometry>
        </mxCell>
        <mxCell id="h8QKxIH4rxHfvOc697Op-5" value="Input" style="rounded=1;whiteSpace=wrap;html=1;fontStyle=1;fontSize=14;" vertex="1" parent="1">
          <mxGeometry x="260" y="220" width="90" height="30" as="geometry" />
        </mxCell>
        <mxCell id="h8QKxIH4rxHfvOc697Op-6" value="Output" style="rounded=1;whiteSpace=wrap;html=1;fontStyle=1;fontSize=14;" vertex="1" parent="1">
          <mxGeometry x="370" y="220" width="90" height="30" as="geometry" />
        </mxCell>
        <mxCell id="h8QKxIH4rxHfvOc697Op-7" value="Error" style="rounded=1;whiteSpace=wrap;html=1;fontStyle=1;fontSize=14;" vertex="1" parent="1">
          <mxGeometry x="480" y="220" width="90" height="30" as="geometry" />
        </mxCell>
        <mxCell id="h8QKxIH4rxHfvOc697Op-8" value="" style="endArrow=classic;html=1;rounded=0;entryX=0.5;entryY=0;entryDx=0;entryDy=0;" edge="1" parent="1" target="h8QKxIH4rxHfvOc697Op-6">
          <mxGeometry width="50" height="50" relative="1" as="geometry">
            <mxPoint x="415" y="180" as="sourcePoint" />
            <mxPoint x="426" y="220" as="targetPoint" />
          </mxGeometry>
        </mxCell>
        <mxCell id="h8QKxIH4rxHfvOc697Op-9" value="" style="endArrow=classic;html=1;rounded=0;entryX=0.5;entryY=0;entryDx=0;entryDy=0;" edge="1" parent="1" target="h8QKxIH4rxHfvOc697Op-7">
          <mxGeometry width="50" height="50" relative="1" as="geometry">
            <mxPoint x="452.81138790035584" y="164.5" as="sourcePoint" />
            <mxPoint x="560" y="290" as="targetPoint" />
          </mxGeometry>
        </mxCell>
        <mxCell id="h8QKxIH4rxHfvOc697Op-12" value="" style="shape=curlyBracket;whiteSpace=wrap;html=1;rounded=1;flipH=1;labelPosition=right;verticalLabelPosition=middle;align=left;verticalAlign=middle;direction=north;size=0.5;" vertex="1" parent="1">
          <mxGeometry x="370" y="258" width="200" height="20" as="geometry" />
        </mxCell>
        <mxCell id="h8QKxIH4rxHfvOc697Op-15" value="&lt;b&gt;&lt;font style=&quot;font-size: 14px;&quot;&gt;Logging&lt;/font&gt;&lt;/b&gt;" style="text;html=1;align=center;verticalAlign=middle;resizable=0;points=[];autosize=1;strokeColor=none;fillColor=none;" vertex="1" parent="1">
          <mxGeometry x="430" y="272" width="80" height="30" as="geometry" />
        </mxCell>
        <mxCell id="h8QKxIH4rxHfvOc697Op-16" value="stdin" style="text;html=1;align=center;verticalAlign=middle;resizable=0;points=[];autosize=1;strokeColor=none;fillColor=none;fontStyle=1" vertex="1" parent="1">
          <mxGeometry x="339" y="180" width="50" height="30" as="geometry" />
        </mxCell>
        <mxCell id="h8QKxIH4rxHfvOc697Op-17" value="stdout" style="text;html=1;align=center;verticalAlign=middle;resizable=0;points=[];autosize=1;strokeColor=none;fillColor=none;fontStyle=1" vertex="1" parent="1">
          <mxGeometry x="405" y="180" width="60" height="30" as="geometry" />
        </mxCell>
        <mxCell id="h8QKxIH4rxHfvOc697Op-18" value="stderr" style="text;html=1;align=center;verticalAlign=middle;resizable=0;points=[];autosize=1;strokeColor=none;fillColor=none;fontStyle=1" vertex="1" parent="1">
          <mxGeometry x="485" y="180" width="60" height="30" as="geometry" />
        </mxCell>
        <mxCell id="h8QKxIH4rxHfvOc697Op-20" value="" style="swimlane;startSize=0;" vertex="1" parent="1">
          <mxGeometry x="221" y="71" width="390" height="250" as="geometry" />
        </mxCell>
      </root>
    </mxGraphModel>
  </diagram>
</mxfile>
